<svg width="260" height="148" viewBox="0 0 260 148" fill="none" xmlns="http://www.w3.org/2000/svg">
<path d="M52.304 1.29202L27.731 146.012H10.6582L31.7771 24.72L0 38.065L3.15797 20.5682L49.3434 1.29202H52.304Z" fill="#D3DDFE"/>
<path d="M155.53 130.986L153.162 146.012H75.1006L77.2717 132.073L123.161 80.2749C126.451 76.5185 129.806 72.5315 133.227 68.3138C136.648 64.0302 139.642 59.5489 142.208 54.8699C144.773 50.1909 146.352 45.2153 146.945 39.9432C147.405 36.4505 147.273 32.7929 146.55 28.9706C145.892 25.1483 144.444 21.9192 142.208 19.2831C139.971 16.5812 136.681 15.1643 132.339 15.0325C126.681 14.7689 122.043 16.0869 118.424 18.9866C114.806 21.8862 112.009 25.6426 110.036 30.2557C108.128 34.8029 106.845 39.4819 106.187 44.2927L89.3115 44.3916C90.101 36.3516 92.305 28.9377 95.9235 22.1498C99.6078 15.2961 104.575 9.85921 110.825 5.83922C117.141 1.81923 124.641 -0.0919152 133.326 0.105789C140.497 0.237592 146.517 2.01693 151.385 5.44381C156.254 8.80478 159.807 13.319 162.044 18.9866C164.346 24.6541 165.169 30.9477 164.511 37.8673C164.05 42.8099 162.899 47.6207 161.057 52.2998C159.28 56.9129 157.043 61.3612 154.346 65.6448C151.649 69.9284 148.688 74.0472 145.464 78.0013C142.306 81.8895 139.148 85.6129 135.99 89.1716L98.4893 130.986H155.53Z" fill="#D3DDFE"/>
<path d="M206.453 65.1505L216.617 65.2494C221.617 65.1835 225.96 64.0302 229.644 61.7896C233.394 59.5489 236.355 56.5174 238.526 52.6952C240.763 48.8729 242.111 44.5234 242.572 39.6467C242.901 35.8903 242.736 32.1339 242.079 28.3775C241.486 24.5552 240.039 21.392 237.736 18.8877C235.499 16.3176 232.078 14.9995 227.473 14.9336C222.736 14.8018 218.788 15.9551 215.63 18.3934C212.538 20.8318 210.104 23.9621 208.328 27.7844C206.551 31.6067 205.367 35.5608 204.775 39.6467L187.998 39.7455C188.656 32.4964 190.729 25.8403 194.215 19.7774C197.768 13.7144 202.439 8.87068 208.229 5.2461C214.084 1.62152 220.861 -0.124866 228.558 0.006937C236.19 0.204641 242.407 2.18169 247.21 5.93807C252.013 9.62855 255.434 14.5053 257.474 20.5682C259.579 26.5652 260.368 33.0895 259.842 40.1409C259.447 45.5449 258.099 50.4545 255.796 54.8699C253.493 59.2853 250.467 63.0746 246.717 66.2379C243.032 69.4012 238.822 71.8725 234.085 73.6518C229.414 75.3653 224.446 76.222 219.183 76.222L204.676 76.1231L206.453 65.1505ZM203.985 80.0772L205.762 69.1046L218.098 69.2035C223.69 69.4012 228.624 70.3238 232.901 71.9713C237.243 73.6189 240.828 75.9913 243.657 79.0887C246.487 82.1202 248.526 85.8436 249.776 90.259C251.026 94.6085 251.421 99.5841 250.96 105.186C250.5 111.051 249.184 116.587 247.013 121.793C244.908 126.999 242.013 131.612 238.328 135.632C234.71 139.586 230.401 142.684 225.4 144.924C220.4 147.099 214.808 148.12 208.624 147.989C202.9 147.857 197.933 146.704 193.722 144.529C189.511 142.354 186.057 139.421 183.36 135.731C180.662 132.041 178.689 127.823 177.439 123.078C176.254 118.267 175.794 113.226 176.057 107.954H193.13C192.867 111.842 193.163 115.697 194.018 119.519C194.873 123.276 196.518 126.439 198.952 129.009C201.452 131.513 205.005 132.831 209.611 132.963C214.874 133.161 219.216 131.942 222.637 129.306C226.124 126.604 228.789 123.144 230.631 118.926C232.539 114.643 233.69 110.161 234.085 105.482C234.545 101.001 234.249 96.8821 233.197 93.1257C232.21 89.3693 230.302 86.3379 227.473 84.0313C224.71 81.6589 220.894 80.3738 216.025 80.1761L203.985 80.0772Z" fill="#D3DDFE"/>
</svg>
