<svg width="96" height="32" viewBox="0 0 96 32" fill="none" xmlns="http://www.w3.org/2000/svg">
<g clip-path="url(#clip0_1_280)">
<path d="M19.1703 7.53939C19.1703 5.82542 19.1703 4.11321 19.1703 2.39924C19.1703 1.27009 19.4395 0.792718 20.1284 0.709926C21.076 0.595427 22.1864 1.32118 22.36 2.20194C22.4273 2.54368 22.4309 2.90127 22.4309 3.25006C22.4397 6.41377 22.4096 9.57748 22.4539 12.7394C22.484 14.8374 21.1946 16.5408 18.7824 16.4386C17.6596 16.3911 16.5296 16.3946 15.4067 16.4527C13.641 16.5408 12.8422 17.3687 12.8316 19.1267C12.8085 22.6199 12.8209 26.1112 12.8245 29.6043C12.8245 30.7317 12.5163 31.2567 11.8043 31.3007C10.7417 31.3659 9.67903 30.5644 9.61704 29.5991C9.56922 28.8557 9.58694 28.107 9.58339 27.3602C9.57454 24.6809 9.52672 21.9998 9.59048 19.3205C9.60819 18.5402 9.81009 17.6946 10.1732 17.0076C10.6549 16.0934 11.544 15.6037 12.6367 15.6002C13.873 15.5966 15.1092 15.6019 16.3454 15.5773C18.3432 15.5367 19.1508 14.7317 19.1756 12.743C19.1969 11.0078 19.1791 9.27274 19.1791 7.53763C19.1756 7.53763 19.1721 7.53763 19.1685 7.53763L19.1703 7.53939Z" fill="#131313"/>
<path d="M14.376 25.3907C14.376 23.7877 14.3689 22.1847 14.3777 20.5817C14.3901 18.4767 15.7663 17.1432 17.8863 17.1555C19.0127 17.1608 20.1373 17.1661 21.2637 17.1555C23.0437 17.1379 23.9576 16.2377 23.9629 14.4692C23.9735 11.1751 23.9646 7.88104 23.97 4.58697C23.97 4.3245 23.9664 4.05323 24.0319 3.80309C24.2037 3.1478 24.9263 2.84482 25.4949 3.2165C26.4123 3.81718 27.1243 4.58521 27.1367 5.76368C27.165 8.74947 27.2341 11.737 27.1703 14.7211C27.1243 16.8772 25.9341 17.9552 23.7734 18.0134C22.6044 18.0451 21.4302 18.0891 20.2648 18.0239C18.662 17.9341 17.6047 19.1214 17.6259 20.6997C17.6684 23.8617 17.6224 27.0236 17.6064 30.1873C17.5994 31.6793 16.5385 32.3804 15.1553 31.7991C14.5832 31.5596 14.3777 31.0769 14.3831 30.4656C14.3972 28.7746 14.3884 27.0835 14.3884 25.3924C14.3848 25.3924 14.3795 25.3924 14.376 25.3924V25.3907Z" fill="#131313"/>
<path d="M8.04075 22.5018C8.04075 24.214 8.03721 25.9262 8.04252 27.6384C8.0443 28.1545 7.9398 28.6055 7.4191 28.8415C6.88955 29.0811 6.50345 28.8081 6.10141 28.4963C5.23712 27.8251 4.83331 26.9584 4.83509 25.8716C4.83863 23.0619 4.80498 20.2505 4.82269 17.4409C4.83686 15.1914 6.13152 13.9671 8.40028 13.9777C9.54795 13.983 10.6956 13.9777 11.8433 13.9619C13.4691 13.939 14.3653 13.0388 14.3706 11.4059C14.383 8.19989 14.383 4.99566 14.3883 1.78967C14.3901 0.322315 15.513 -0.394629 16.8643 0.218384C17.4063 0.464999 17.6153 0.921236 17.6153 1.50078C17.6153 4.13603 17.6223 6.76952 17.6259 9.40478C17.6259 10.1076 17.633 10.8105 17.6259 11.5116C17.6011 13.4757 16.2533 14.8162 14.2927 14.8338C13.0352 14.8444 11.776 14.8285 10.5185 14.862C8.9688 14.9025 8.11691 15.7304 8.07617 17.3C8.0319 19.0333 8.06555 20.7684 8.06555 22.5035C8.05669 22.5035 8.04784 22.5035 8.03898 22.5035L8.04075 22.5018Z" fill="#131313"/>
<path d="M28.7607 7.30169C28.7749 7.01456 29.1503 6.91063 29.308 7.1502C29.308 7.1502 29.3097 7.15372 29.3115 7.15548C31.0967 9.89819 32.039 12.8875 31.9982 16.1728C31.9717 18.269 30.6894 19.5743 28.5659 19.6078C27.3296 19.6271 26.0917 19.5954 24.8572 19.6359C23.3075 19.687 22.4574 20.5678 22.4468 22.1021C22.4308 24.3868 22.4397 26.6715 22.4344 28.9562C22.4308 30.3742 21.9686 30.945 20.5836 31.2568C19.8415 31.4241 19.1986 31.0102 19.1933 30.2615C19.1703 27.3409 19.1472 24.4167 19.211 21.4979C19.2376 20.2208 20.4862 18.9842 21.772 18.845C22.6469 18.7499 23.5342 18.7869 24.418 18.7693C25.0361 18.7587 25.656 18.7781 26.2723 18.7464C27.8645 18.6671 28.7518 17.7493 28.7554 16.1728C28.7625 13.3173 28.7518 10.4619 28.7554 7.60467C28.7554 7.50603 28.7589 7.40738 28.7642 7.29993L28.7607 7.30169Z" fill="#131313"/>
<path d="M2.95419 25.3308C2.43172 24.3831 1.8508 23.4618 1.39918 22.4807C0.400284 20.314 -0.065512 18.0258 0.00710255 15.6354C0.0655484 13.7417 1.39741 12.4276 3.29955 12.4082C4.51275 12.3959 5.72771 12.4082 6.94268 12.3959C8.67126 12.3765 9.59045 11.4482 9.59577 9.72542C9.60108 7.37553 9.61879 5.02565 9.59577 2.67753C9.5816 1.20136 10.8196 0.773309 11.8574 0.723986C12.4578 0.695802 12.8209 1.21898 12.8227 1.98172C12.8262 3.93702 12.8209 5.89056 12.8174 7.84586C12.8174 8.56985 12.8227 9.2956 12.8121 10.0196C12.789 11.8991 11.505 13.1868 9.60462 13.2185C8.3684 13.2397 7.13219 13.2185 5.89597 13.2414C4.83331 13.2608 3.92475 13.6096 3.49791 14.6648C3.33852 15.0593 3.27299 15.5138 3.26944 15.9419C3.24819 18.7304 3.25705 21.5189 3.25173 24.3091C3.25173 24.6245 3.21277 24.9398 3.19152 25.2551C3.12953 25.389 3.04806 25.3643 2.95419 25.3308Z" fill="#131313"/>
<path d="M31.2155 20.455C31.2597 20.5677 31.219 20.6963 31.1181 20.7632C30.8967 20.9095 30.6788 21.0627 30.4362 21.1508C30.1989 21.2371 29.9137 21.1878 29.6498 21.2036C28.086 21.297 27.25 22.1707 27.211 23.7385C27.188 24.658 27.1916 25.581 27.1101 26.497C27.0127 27.6033 26.2989 28.322 25.385 28.8399C24.7846 29.1798 24.0178 28.7483 23.9983 28.019C23.9558 26.3332 23.9009 24.6369 24.0408 22.9599C24.1453 21.7039 25.0025 20.721 26.2369 20.5307C27.7866 20.2912 29.3842 20.3475 30.9622 20.2912C31.0702 20.2876 31.1694 20.351 31.2101 20.4515V20.455H31.2155Z" fill="#131313"/>
<path d="M1.00773 11.6508C0.867818 11.6209 0.78989 11.4659 0.832396 11.3302C0.942204 10.992 1.24683 10.8828 1.58688 10.8335C1.86848 10.7929 2.16071 10.8158 2.44586 10.7929C3.92117 10.6714 4.81026 9.71841 4.83151 8.23696C4.84214 7.44603 4.84391 6.65687 4.85099 5.86594C4.86162 4.66634 5.52755 3.84722 6.468 3.22716C7.13924 2.78326 7.98936 3.20074 8.01415 4.01281C8.0602 5.63694 8.10094 7.26636 8.0053 8.88521C7.92206 10.2997 6.65042 11.531 5.21407 11.6262C3.82908 11.7178 2.43523 11.6561 1.04493 11.6561C1.03253 11.6561 1.01836 11.6561 1.00596 11.6508H1.00773Z" fill="#131313"/>
</g>
<path d="M53.2338 17.668C53.2035 17.0331 53.1808 16.3981 53.1656 15.7631C53.1505 15.1282 53.0975 14.4857 53.0066 13.8356C52.9611 13.5786 52.8778 13.3896 52.7567 13.2687C52.6355 13.1477 52.431 13.1024 52.1432 13.1326C51.9614 13.1628 51.7797 13.1628 51.5979 13.1326C51.4161 13.1024 51.2419 13.057 51.0753 12.9965C50.8935 12.9209 50.7496 12.9134 50.6436 12.9739C50.5376 13.0343 50.4467 13.1477 50.371 13.314C50.1589 13.7978 49.9393 14.274 49.712 14.7427C49.4848 15.2113 49.2576 15.6876 49.0304 16.1713C48.5911 17.1238 48.1594 18.0762 47.7353 19.0287C47.3263 19.9811 46.9249 20.9487 46.5311 21.9313C46.3191 22.4605 45.9176 22.657 45.3269 22.5209C45.1148 22.4756 44.9179 22.3849 44.7362 22.2488C44.5392 22.1128 44.3802 21.954 44.259 21.7726C44.1227 21.5761 44.0394 21.3644 44.0091 21.1376C43.9788 20.8957 44.0242 20.6463 44.1454 20.3893C44.4938 19.5729 44.827 18.7641 45.1451 17.9628C45.4632 17.1465 45.8192 16.3452 46.213 15.5591C46.5766 14.8485 46.9174 14.1304 47.2355 13.4047C47.5536 12.6791 47.8792 11.9534 48.2125 11.2277C48.7275 10.1543 49.2349 9.0885 49.7348 8.03024C50.2346 6.95685 50.7572 5.89102 51.3025 4.83276C51.5903 4.30362 51.8705 3.77449 52.1432 3.24535C52.431 2.71622 52.7112 2.18709 52.9839 1.65795C53.4989 0.629922 54.3244 0.0932289 55.4604 0.0478742C55.9906 0.0176375 56.5208 0.00251935 57.0509 0.00251935C57.5962 -0.0125977 58.1339 0.0403161 58.6641 0.16126C59.1337 0.282205 59.5654 0.463623 59.9592 0.705512C60.3682 0.947402 60.7166 1.24976 61.0044 1.6126C61.2922 1.96032 61.5118 2.35339 61.6633 2.79181C61.8147 3.21512 61.8905 3.66866 61.8905 4.15244C61.8753 4.68158 61.7769 5.18803 61.5951 5.67181C61.4133 6.15559 61.2013 6.63181 60.9589 7.10047C60.656 7.73543 60.2849 8.30992 59.8456 8.82394C59.4063 9.33795 58.9368 9.82929 58.4369 10.298C57.9673 10.7213 57.475 11.0992 56.96 11.4318C56.445 11.7493 55.9073 12.0441 55.3468 12.3162C55.2105 12.3918 55.1272 12.4674 55.0969 12.543C55.0666 12.6186 55.0893 12.7244 55.1651 12.8605C55.4074 13.3594 55.5665 13.8809 55.6422 14.4252C55.7331 14.9543 55.7937 15.491 55.824 16.0353C55.8543 16.7005 55.8619 17.3581 55.8467 18.0082C55.8316 18.6583 55.8619 19.3159 55.9376 19.9811C55.9679 20.2079 56.0057 20.4271 56.0512 20.6387C56.1118 20.8504 56.2027 21.062 56.3238 21.2737C56.4299 21.44 56.4905 21.6214 56.5056 21.818C56.5208 21.9994 56.4602 22.1732 56.3238 22.3395C56.0663 22.657 55.7028 22.7553 55.2332 22.6343C54.7334 22.4832 54.3547 22.2337 54.0972 21.886C53.8397 21.5383 53.6503 21.1301 53.5292 20.6614C53.3928 20.1776 53.302 19.6939 53.2565 19.2101C53.2111 18.7112 53.2035 18.1972 53.2338 17.668ZM59.2548 3.51748C59.2548 3.07906 59.1791 2.77669 59.0276 2.61039C58.8762 2.44409 58.6111 2.35339 58.2324 2.33827C57.9749 2.32315 57.7098 2.32315 57.4372 2.33827C57.1797 2.33827 56.9222 2.33827 56.6647 2.33827C56.0891 2.30803 55.6801 2.56504 55.4377 3.10929C54.8773 4.27339 54.2714 5.42236 53.6201 6.55622C52.9839 7.67496 52.431 8.84661 51.9614 10.0712C51.9311 10.1468 51.8781 10.2299 51.8024 10.3206C51.7418 10.3962 51.7569 10.4794 51.8478 10.5701C52.0144 10.7061 52.2189 10.7364 52.4613 10.6608C52.6279 10.5852 52.7945 10.5172 52.9611 10.4567C53.1278 10.3962 53.2944 10.3282 53.461 10.2526C54.6273 9.72346 55.6498 9.05071 56.5283 8.23433C57.4069 7.41795 58.1339 6.43528 58.7095 5.2863C58.861 4.98394 58.9822 4.68158 59.0731 4.37921C59.164 4.07685 59.2246 3.78961 59.2548 3.51748Z" fill="black"/>
<path d="M59.3697 20.3893C59.8544 20.0567 60.2558 19.709 60.5739 19.3461C60.9071 18.9682 61.2328 18.5827 61.5509 18.1896C62.2477 17.343 62.9066 16.4813 63.5276 15.6044C64.1487 14.7124 64.747 13.8054 65.3226 12.8831C65.5043 12.6261 65.6785 12.3616 65.8452 12.0894C66.0269 11.8173 66.2087 11.5528 66.3905 11.2957C66.6025 10.9934 66.86 10.8271 67.163 10.7969C67.4659 10.7666 67.784 10.8724 68.1173 11.1143C68.7534 11.5528 68.8746 12.0819 68.4808 12.7017C67.9506 13.6088 67.4432 14.5235 66.9585 15.4457C66.4889 16.3679 66.0572 17.3128 65.6634 18.2803C65.5422 18.5373 65.4513 18.8019 65.3907 19.074C65.3302 19.3461 65.315 19.6258 65.3453 19.9131C65.3605 19.9735 65.368 20.034 65.368 20.0945C65.368 20.155 65.4059 20.2003 65.4816 20.2306C65.5422 20.2457 65.5877 20.2306 65.618 20.1852C65.6634 20.1398 65.7013 20.102 65.7316 20.0718C66.595 19.2101 67.3372 18.303 67.9582 17.3506C68.0037 17.275 68.0491 17.1994 68.0945 17.1238C68.1551 17.0482 68.2157 16.9726 68.2763 16.897C68.4429 16.7005 68.6323 16.5569 68.8443 16.4661C69.0564 16.3603 69.2685 16.3225 69.4805 16.3528C69.6926 16.3679 69.8895 16.4435 70.0713 16.5795C70.2682 16.7005 70.4348 16.8819 70.5711 17.1238C70.6469 17.2901 70.6847 17.4564 70.6847 17.6227C70.6999 17.7739 70.6544 17.925 70.5484 18.0762C70.094 18.6809 69.6471 19.2857 69.2079 19.8904C68.7686 20.48 68.2839 21.0394 67.7537 21.5685C67.3599 21.9767 66.9433 22.2715 66.5041 22.4529C66.0648 22.6192 65.5649 22.6192 65.0045 22.4529C64.5652 22.3169 64.2168 22.0901 63.9593 21.7726C63.7018 21.4551 63.4898 21.0998 63.3231 20.7068C63.2171 20.4649 63.1414 20.3439 63.0959 20.3439C63.0656 20.3288 62.9672 20.412 62.8006 20.5934C62.5431 20.8957 62.2628 21.183 61.9599 21.4551C61.6721 21.7121 61.3767 21.9691 61.0738 22.2261C60.8011 22.4529 60.4906 22.589 60.1422 22.6343C59.7938 22.6797 59.4454 22.657 59.097 22.5663C58.7638 22.4756 58.4533 22.3169 58.1655 22.0901C57.8625 21.8633 57.6202 21.5836 57.4384 21.251C57.0749 20.5405 56.9613 19.8299 57.0976 19.1194C57.2642 18.2123 57.5217 17.3506 57.8701 16.5342C58.2185 15.7027 58.6275 14.8939 59.097 14.1077C59.4 13.6239 59.7029 13.1402 60.0059 12.6564C60.3088 12.1726 60.6193 11.6888 60.9374 11.205C61.3464 10.5852 61.8766 10.4869 62.5279 10.9102C62.8763 11.137 63.0884 11.4016 63.1641 11.7039C63.2398 12.0063 63.1792 12.3162 62.9823 12.6337C62.4219 13.5408 61.8539 14.4403 61.2783 15.3323C60.7178 16.2091 60.2558 17.1465 59.8923 18.1443C59.7711 18.492 59.6575 18.8472 59.5515 19.2101C59.4606 19.5578 59.4 19.9509 59.3697 20.3893Z" fill="black"/>
<path d="M65.5219 29.12C65.6431 28.8025 65.7567 28.485 65.8627 28.1676C65.9536 27.8501 66.0824 27.5402 66.249 27.2378C66.5974 26.6331 67.0215 26.1115 67.5214 25.6731C68.0061 25.2346 68.5059 24.7962 69.0209 24.3578C69.3239 24.1008 69.6193 23.8513 69.9071 23.6094C70.1949 23.3827 70.4827 23.1408 70.7705 22.8838C70.831 22.8384 70.8841 22.7931 70.9295 22.7477C70.9901 22.7024 71.0355 22.6192 71.0658 22.4983C70.6872 22.5285 70.3463 22.468 70.0434 22.3169C69.7556 22.1506 69.4829 21.954 69.2254 21.7272C68.771 21.3342 68.4681 20.9033 68.3166 20.4346C68.15 19.966 68.1121 19.4444 68.203 18.8699C68.2939 18.3408 68.4378 17.8343 68.6347 17.3506C68.8165 16.8668 69.0285 16.3906 69.2709 15.9219C69.6647 15.1206 70.0737 14.3345 70.4978 13.5635C70.9371 12.7924 71.4066 12.0365 71.9065 11.2957C72.0428 11.0841 72.1943 10.9254 72.3609 10.8195C72.5427 10.6986 72.7623 10.6683 73.0198 10.7288C73.3228 10.7893 73.5727 10.9027 73.7696 11.069C73.9817 11.2202 74.1332 11.4469 74.224 11.7493C74.3149 11.9761 74.2695 12.2028 74.0877 12.4296C73.6484 13.0797 73.2395 13.7524 72.8608 14.4479C72.4821 15.1282 72.1034 15.8085 71.7247 16.4888C71.4672 16.9726 71.2325 17.4639 71.0204 17.9628C70.8083 18.4466 70.6417 18.9531 70.5205 19.4822C70.4902 19.6183 70.4599 19.7694 70.4296 19.9357C70.3994 20.102 70.4524 20.223 70.5887 20.2986C70.6947 20.3591 70.8008 20.3288 70.9068 20.2079C71.0128 20.0869 71.1113 19.9811 71.2022 19.8904C71.6869 19.4066 72.1337 18.9002 72.5427 18.371C72.9517 17.8419 73.3455 17.2976 73.7242 16.7383C74.3149 15.8765 74.8678 14.9997 75.3828 14.1077C75.8978 13.2006 76.3977 12.286 76.8824 11.3638C77.0339 11.0765 77.2535 10.9027 77.5413 10.8422C77.8291 10.7666 78.1245 10.812 78.4274 10.9783C78.7758 11.1597 79.0106 11.4016 79.1318 11.7039C79.2529 12.0063 79.2302 12.3087 79.0636 12.611C78.791 13.1099 78.5335 13.6088 78.2911 14.1077C78.0487 14.6066 77.8064 15.1131 77.564 15.6271C77.3974 15.9597 77.2535 16.2998 77.1323 16.6476C77.0111 16.9802 76.89 17.3354 76.7688 17.7134C76.9809 17.5471 77.1929 17.3808 77.405 17.2145C77.617 17.0482 77.8064 16.8668 77.973 16.6702C78.1548 16.4737 78.3517 16.3603 78.5637 16.3301C78.791 16.2847 79.0106 16.2998 79.2227 16.3754C79.4347 16.451 79.6165 16.5644 79.768 16.7156C79.9346 16.8668 80.0558 17.0331 80.1315 17.2145C80.283 17.6227 80.1845 17.978 79.8361 18.2803C79.4877 18.5827 79.1393 18.885 78.791 19.1874C78.4426 19.4746 78.0942 19.7695 77.7458 20.0718C77.2308 20.5102 76.7234 20.9411 76.2235 21.3644C75.7236 21.7726 75.2238 22.1883 74.7239 22.6117C74.633 22.6872 74.5573 22.7704 74.4967 22.8611C74.4513 22.9518 74.4134 23.0425 74.3831 23.1332C74.0801 23.9043 73.7772 24.6602 73.4743 25.4009C73.1713 26.1569 72.8684 26.9128 72.5654 27.6687C72.3382 28.1978 72.0731 28.7043 71.7702 29.188C71.4824 29.6718 71.1643 30.1405 70.8159 30.594C70.5584 30.9417 70.2479 31.2214 69.8843 31.4331C69.5208 31.6447 69.1421 31.8337 68.7483 32H67.8622C67.2866 31.8337 66.8019 31.5767 66.408 31.229C65.9991 30.8813 65.7037 30.4202 65.5219 29.8457V29.12ZM70.4069 26.4668C70.0737 26.6482 69.748 26.8825 69.4299 27.1698C69.127 27.457 68.8619 27.7594 68.6347 28.0768C68.4075 28.3943 68.2333 28.7118 68.1121 29.0293C67.9758 29.3468 67.9152 29.6265 67.9303 29.8683C68.2636 29.6718 68.5514 29.4375 68.7937 29.1654C69.0209 28.9083 69.2254 28.6287 69.4072 28.3263C69.589 28.0239 69.7556 27.714 69.9071 27.3965C70.0585 27.0791 70.2252 26.7691 70.4069 26.4668Z" fill="black"/>
<path d="M82.7781 20.7295C82.4752 20.9865 82.1874 21.2359 81.9147 21.4778C81.6572 21.7046 81.3846 21.9162 81.0968 22.1128C80.5666 22.4756 80.0289 22.6343 79.4836 22.589C78.9534 22.5285 78.4687 22.2564 78.0295 21.7726C77.575 21.2888 77.31 20.7672 77.2342 20.2079C77.1585 19.6485 77.1888 19.074 77.3251 18.4844C77.628 17.1994 78.09 16.0202 78.7111 14.9468C79.3473 13.8583 80.1652 12.8832 81.1649 12.0214C81.4224 11.7795 81.7102 11.5603 82.0283 11.3638C82.3464 11.1672 82.6872 11.0085 83.0508 10.8876C83.5961 10.7061 84.1111 10.691 84.5958 10.8422C85.0957 10.9934 85.5198 11.2957 85.8682 11.7493C85.9742 11.8702 86.0575 11.9458 86.1181 11.9761C86.1938 12.0063 86.2847 11.9307 86.3908 11.7493C86.4816 11.5376 86.6104 11.3713 86.777 11.2504C86.9436 11.1294 87.1406 11.0841 87.3678 11.1143C87.9585 11.1899 88.3826 11.4696 88.6401 11.9534C88.731 12.165 88.7537 12.3616 88.7083 12.543C88.678 12.7093 88.6174 12.8756 88.5265 13.0419C88.1781 13.6466 87.8449 14.2438 87.5268 14.8334C87.2239 15.423 86.9436 16.0277 86.6861 16.6476C86.368 17.3581 86.0727 18.0838 85.8 18.8246C85.5425 19.5654 85.3304 20.3288 85.1638 21.115C85.0881 21.3417 85.0351 21.5685 85.0048 21.7953C84.9896 22.022 84.9745 22.2564 84.9593 22.4983C84.9442 22.6797 84.9745 22.8157 85.0502 22.9065C85.1411 22.9972 85.2699 23.0652 85.4365 23.1106C86.5877 23.4583 87.4208 24.1537 87.9358 25.1969C88.1024 25.5446 88.2312 25.8923 88.322 26.24C88.4129 26.6028 88.4205 26.9732 88.3448 27.3512C88.269 27.9559 88.0115 28.4019 87.5723 28.6891C87.1481 28.9915 86.6407 29.0822 86.0499 28.9613C85.6713 28.8857 85.3229 28.742 85.0048 28.5304C84.6867 28.3339 84.3989 28.092 84.1414 27.8047C83.8839 27.5024 83.6491 27.1773 83.437 26.8296C83.2401 26.497 83.0962 26.1342 83.0053 25.7411C82.9599 25.5748 82.8766 25.469 82.7554 25.4236C82.6342 25.3934 82.4979 25.3934 82.3464 25.4236C82.195 25.469 82.0359 25.5219 81.8693 25.5824C81.7178 25.6428 81.5891 25.6957 81.483 25.7411C81.0892 25.862 80.6954 25.9906 80.3015 26.1266C79.9077 26.2627 79.5139 26.3912 79.1201 26.5121C78.4536 26.7087 77.7795 26.8901 77.0979 27.0564C76.4163 27.2378 75.7271 27.3739 75.0303 27.4646C74.3487 27.5855 73.6746 27.6384 73.0081 27.6233C72.3265 27.6233 71.6449 27.5402 70.9632 27.3739C70.524 27.2529 70.115 27.0866 69.7363 26.875C69.3425 26.6784 68.9865 26.4214 68.6684 26.1039C68.5624 26.0132 68.4715 25.915 68.3958 25.8091C68.32 25.7184 68.267 25.605 68.2367 25.469C68.161 25.212 68.1686 24.9776 68.2594 24.766C68.3655 24.6148 68.5094 24.5165 68.6911 24.4712C68.8729 24.4258 69.0547 24.4258 69.2364 24.4712C69.4031 24.5165 69.5621 24.5846 69.7136 24.6753C69.8651 24.7811 70.009 24.8945 70.1453 25.0154C70.4331 25.1969 70.7133 25.3329 70.986 25.4236C71.2586 25.5143 71.5691 25.5824 71.9175 25.6277C72.5234 25.6882 73.1596 25.6504 73.8261 25.5143C74.4774 25.3934 75.106 25.2649 75.7119 25.1288C76.2724 25.0079 76.8252 24.8567 77.3705 24.6753C77.9007 24.509 78.4309 24.3351 78.961 24.1537C79.5063 23.9874 80.0516 23.8211 80.5969 23.6548C81.1422 23.5036 81.6951 23.3676 82.2555 23.2466C82.407 23.2164 82.5131 23.1635 82.5736 23.0879C82.6494 23.0274 82.6797 22.914 82.6645 22.7477C82.6494 22.4151 82.657 22.0901 82.6872 21.7726C82.7175 21.4551 82.7478 21.1074 82.7781 20.7295ZM79.5063 20.2306C79.6275 20.2003 79.7184 20.1625 79.779 20.1172C79.8396 20.0567 79.9001 20.0038 79.9607 19.9584C80.3091 19.6561 80.6424 19.3386 80.9605 19.006C81.2785 18.6583 81.5966 18.3106 81.9147 17.9628C82.3086 17.5698 82.657 17.1691 82.9599 16.7609C83.2628 16.3376 83.5203 15.8765 83.7324 15.3776C83.8233 15.0602 83.9142 14.7502 84.0051 14.4479C84.0959 14.1455 84.1565 13.8205 84.1868 13.4728C84.1868 13.3972 84.1944 13.3065 84.2095 13.2006C84.2398 13.0797 84.202 12.9965 84.0959 12.9512C83.9899 12.9058 83.899 12.9209 83.8233 12.9965C83.7476 13.057 83.6642 13.1175 83.5734 13.178C82.5282 13.949 81.6799 14.8485 81.0286 15.8765C80.3773 16.9046 79.9001 18.0535 79.5972 19.3235C79.5669 19.4595 79.5442 19.6032 79.529 19.7543C79.529 19.9055 79.5215 20.0643 79.5063 20.2306ZM86.0954 26.4441C86.0954 26.0964 86.0348 25.794 85.9136 25.537C85.8076 25.2951 85.6561 25.1364 85.4592 25.0608C85.4138 25.0306 85.3607 25.0003 85.3002 24.9701C85.2547 24.955 85.1941 24.9625 85.1184 24.9928C85.0426 25.0381 85.0124 25.0835 85.0275 25.1288C85.0427 25.1742 85.0502 25.2271 85.0502 25.2876C85.1108 25.5446 85.1865 25.7713 85.2774 25.9679C85.3683 26.1795 85.4668 26.3761 85.5728 26.5575C85.6182 26.6331 85.6561 26.7087 85.6864 26.7843C85.7319 26.8598 85.8 26.8825 85.8909 26.8523C86.0121 26.822 86.0727 26.7616 86.0727 26.6709C86.0727 26.5953 86.0802 26.5197 86.0954 26.4441Z" fill="black"/>
<path d="M86.9838 19.2554C86.9838 18.938 87.0595 18.5676 87.211 18.1443C87.3473 17.7058 87.4988 17.2598 87.6654 16.8063C88.0138 15.8539 88.4228 14.9392 88.8924 14.0624C89.3771 13.1855 89.8618 12.3011 90.3465 11.4091C90.4677 11.1975 90.604 11.0161 90.7555 10.8649C90.907 10.7137 91.1115 10.6532 91.369 10.6835C91.9597 10.7288 92.3914 11.0161 92.664 11.5452C92.8307 11.8476 92.8307 12.1575 92.664 12.475C92.2096 13.3065 91.7476 14.1304 91.2781 14.9468C90.8236 15.7631 90.4298 16.6173 90.0966 17.5093C89.93 17.9024 89.7709 18.2954 89.6194 18.6885C89.468 19.0816 89.3771 19.4973 89.3468 19.9357C89.3468 20.0113 89.3392 20.102 89.3241 20.2079C89.3089 20.2986 89.3392 20.3666 89.415 20.412C89.521 20.4724 89.6043 20.4649 89.6649 20.3893C89.7406 20.3137 89.8164 20.2457 89.8921 20.1852C90.2859 19.8526 90.6343 19.4973 90.9373 19.1194C91.2402 18.7263 91.5431 18.3332 91.8461 17.9402C91.9976 17.7285 92.1415 17.5244 92.2778 17.3279C92.4293 17.1162 92.5883 16.9121 92.7549 16.7156C92.967 16.4435 93.2321 16.2998 93.5502 16.2847C93.8683 16.2696 94.1939 16.3906 94.5272 16.6476C94.815 16.8743 94.974 17.1313 95.0043 17.4186C95.0497 17.7058 94.9664 17.9855 94.7544 18.2576C94.3908 18.7112 94.0425 19.1723 93.7092 19.6409C93.3911 20.1096 93.0352 20.5631 92.6413 21.0016C92.4444 21.2132 92.2475 21.4173 92.0506 21.6139C91.8537 21.8104 91.634 21.9918 91.3917 22.1581C90.7555 22.5663 90.1117 22.725 89.4604 22.6343C88.8091 22.5436 88.2335 22.211 87.7336 21.6365C87.4761 21.3493 87.2868 21.0167 87.1656 20.6387C87.0293 20.2608 86.9687 19.7997 86.9838 19.2554ZM93.5729 6.89638C93.9364 6.9115 94.2697 7.06268 94.5726 7.34992C94.8756 7.62205 95.027 7.92441 95.027 8.25701C95.027 8.42331 94.9816 8.59717 94.8907 8.77858C94.7998 8.94488 94.6862 9.10362 94.5499 9.2548C94.4136 9.39087 94.2697 9.51181 94.1182 9.61764C93.9667 9.70835 93.8228 9.7537 93.6865 9.7537C93.3381 9.73858 93.0124 9.59496 92.7095 9.32284C92.4217 9.03559 92.2778 8.72567 92.2778 8.39307C92.2778 8.22677 92.3157 8.05291 92.3914 7.8715C92.4823 7.69008 92.5883 7.53134 92.7095 7.39528C92.8307 7.2441 92.967 7.12315 93.1185 7.03244C93.2851 6.94173 93.4366 6.89638 93.5729 6.89638Z" fill="black"/>
<defs>
<clipPath id="clip0_1_280">
<rect width="32" height="32" fill="white"/>
</clipPath>
</defs>
</svg>
