<svg width="164" height="56" viewBox="0 0 164 56" fill="none" xmlns="http://www.w3.org/2000/svg">
<g clip-path="url(#clip0_1_602)">
<path d="M33.0844 13.0113C33.0844 10.0533 33.0844 7.09828 33.0844 4.14026C33.0844 2.19156 33.549 1.36769 34.738 1.22481C36.3732 1.0272 38.2897 2.27972 38.5893 3.79977C38.7054 4.38955 38.7115 5.00669 38.7115 5.60863C38.7268 11.0686 38.6749 16.5287 38.7513 21.9856C38.8032 25.6064 36.578 28.5462 32.415 28.3698C30.4771 28.2877 28.527 28.2938 26.5891 28.3942C23.5417 28.5462 22.1632 29.975 22.1448 33.009C22.1051 39.0375 22.1265 45.063 22.1326 51.0915C22.1326 53.0372 21.6008 53.9431 20.372 54.0191C18.5381 54.1316 16.7041 52.7484 16.5971 51.0824C16.5146 49.7995 16.5452 48.5074 16.5391 47.2184C16.5238 42.5944 16.4412 37.9674 16.5513 33.3434C16.5819 31.9967 16.9303 30.5374 17.5569 29.3518C18.3883 27.774 19.9227 26.9288 21.8086 26.9227C23.9421 26.9167 26.0756 26.9258 28.2091 26.8832C31.6569 26.8133 33.0507 25.424 33.0935 21.9917C33.1302 18.9972 33.0996 16.0027 33.0996 13.0082C33.0935 13.0082 33.0874 13.0082 33.0813 13.0082L33.0844 13.0113Z" fill="white"/>
<path d="M24.8103 43.8196C24.8103 41.0531 24.7981 38.2866 24.8134 35.5201C24.8347 31.8872 27.2097 29.5858 30.8684 29.6071C32.8124 29.6162 34.7534 29.6253 36.6974 29.6071C39.7692 29.5767 41.3464 28.0232 41.3556 24.971C41.3739 19.286 41.3587 13.601 41.3678 7.91602C41.3678 7.46304 41.3617 6.99487 41.4748 6.56318C41.7713 5.43226 43.0184 4.90936 43.9995 5.55082C45.5829 6.5875 46.8116 7.91298 46.833 9.9468C46.8819 15.0998 47.0011 20.2558 46.8911 25.4057C46.8116 29.1268 44.7576 30.9873 41.0285 31.0876C39.0112 31.1424 36.9847 31.2184 34.9734 31.1059C32.2072 30.9508 30.3825 32.9999 30.4191 35.7238C30.4925 41.1808 30.413 46.6377 30.3855 52.0977C30.3733 54.6727 28.5424 55.8827 26.1552 54.8794C25.1679 54.466 24.8134 53.633 24.8225 52.5781C24.847 49.6596 24.8317 46.7411 24.8317 43.8226C24.8256 43.8226 24.8164 43.8226 24.8103 43.8226V43.8196Z" fill="white"/>
<path d="M13.877 38.8338C13.877 41.7888 13.8709 44.7437 13.88 47.6987C13.8831 48.5895 13.7027 49.3677 12.8041 49.7751C11.8902 50.1885 11.2239 49.7173 10.53 49.1792C9.0384 48.021 8.34149 46.5252 8.34455 44.6495C8.35066 39.8005 8.29259 34.9485 8.32315 30.0996C8.34761 26.2174 10.582 24.1045 14.4975 24.1228C16.4781 24.1319 18.4588 24.1228 20.4395 24.0954C23.2454 24.0559 24.792 22.5024 24.8012 19.6842C24.8226 14.1512 24.8226 8.6213 24.8318 3.08832C24.8348 0.555924 26.7727 -0.681395 29.1049 0.376559C30.0402 0.802172 30.4009 1.58956 30.4009 2.58975C30.4009 7.13773 30.4131 11.6827 30.4192 16.2307C30.4192 17.4437 30.4314 18.6567 30.4192 19.8666C30.3764 23.2563 28.0504 25.5698 24.6667 25.6002C22.4965 25.6185 20.3233 25.5911 18.1531 25.6489C15.4786 25.7188 14.0084 27.1476 13.9381 29.8564C13.8617 32.8478 13.9198 35.8423 13.9198 38.8368C13.9045 38.8368 13.8892 38.8368 13.8739 38.8368L13.877 38.8338Z" fill="white"/>
<path d="M49.636 12.6007C49.6604 12.1051 50.3084 11.9258 50.5805 12.3392C50.5805 12.3392 50.5835 12.3453 50.5866 12.3483C53.6676 17.0818 55.2937 22.2408 55.2234 27.9106C55.1776 31.5283 52.9646 33.781 49.2998 33.8388C47.1663 33.8722 45.0297 33.8175 42.8993 33.8874C40.2248 33.9756 38.7576 35.4956 38.7393 38.1436C38.7117 42.0866 38.727 46.0296 38.7179 49.9726C38.7117 52.4198 37.914 53.4048 35.5237 53.9429C34.243 54.2317 33.1335 53.5173 33.1243 52.2253C33.0846 47.1848 33.0448 42.1382 33.1549 37.1008C33.2007 34.8967 35.3556 32.7626 37.5747 32.5224C39.0847 32.3583 40.616 32.4221 42.1412 32.3917C43.208 32.3735 44.2778 32.4069 45.3415 32.3522C48.0894 32.2154 49.6207 30.6315 49.6268 27.9106C49.639 22.9826 49.6207 18.0546 49.6268 13.1236C49.6268 12.9533 49.6329 12.7831 49.6421 12.5976L49.636 12.6007Z" fill="white"/>
<path d="M5.09823 43.7163C4.19654 42.0807 3.19397 40.4908 2.41455 38.7974C0.690631 35.0581 -0.113251 31.109 0.0120687 26.9836C0.112936 23.7155 2.41149 21.4476 5.69426 21.4141C7.78802 21.3929 9.88484 21.4141 11.9817 21.3929C14.9649 21.3594 16.5513 19.7573 16.5604 16.7841C16.5696 12.7286 16.6002 8.6731 16.5604 4.62066C16.536 2.07305 18.6725 1.33431 20.4637 1.24919C21.4999 1.20055 22.1265 2.10346 22.1295 3.41982C22.1356 6.79432 22.1265 10.1658 22.1204 13.5403C22.1204 14.7898 22.1295 16.0423 22.1112 17.2918C22.0714 20.5356 19.8554 22.7579 16.5757 22.8126C14.4422 22.8491 12.3087 22.8126 10.1752 22.8521C8.34126 22.8856 6.77324 23.4875 6.0366 25.3085C5.76151 25.9895 5.64841 26.7738 5.6423 27.5126C5.60562 32.3251 5.6209 37.1375 5.61173 41.953C5.61173 42.4972 5.54449 43.0414 5.50781 43.5856C5.40083 43.8166 5.26023 43.7741 5.09823 43.7163Z" fill="white"/>
<path d="M53.8721 35.3009C53.9485 35.4955 53.8782 35.7174 53.704 35.8329C53.3219 36.0853 52.9459 36.3497 52.5272 36.5018C52.1176 36.6507 51.6255 36.5656 51.17 36.593C48.4711 36.7541 47.0284 38.262 46.9611 40.9677C46.9214 42.5546 46.9275 44.1476 46.7869 45.7284C46.6188 47.6376 45.387 48.878 43.8098 49.7718C42.7736 50.3585 41.4501 49.6137 41.4165 48.3551C41.3431 45.4457 41.2484 42.5181 41.4898 39.6239C41.6702 37.4563 43.1496 35.76 45.28 35.4316C47.9545 35.0182 50.7116 35.1155 53.435 35.0182C53.6214 35.0121 53.7926 35.1215 53.8629 35.2948V35.3009H53.8721Z" fill="white"/>
<path d="M1.73936 20.1069C1.49789 20.0552 1.3634 19.7877 1.43676 19.5536C1.62627 18.9699 2.152 18.7814 2.73887 18.6963C3.22486 18.6264 3.7292 18.6659 4.22131 18.6264C6.76745 18.4166 8.30185 16.7719 8.33853 14.2152C8.35687 12.8502 8.35993 11.4882 8.37215 10.1232C8.39049 8.0529 9.53977 6.63925 11.1628 5.56914C12.3213 4.80303 13.7884 5.52354 13.8312 6.92502C13.9107 9.72799 13.981 12.5401 13.8159 15.3339C13.6723 17.7751 11.4776 19.9002 8.99875 20.0643C6.6085 20.2224 4.20297 20.116 1.80355 20.116C1.78215 20.116 1.7577 20.116 1.73631 20.1069H1.73936Z" fill="white"/>
</g>
<path d="M91.8722 30.492C91.8199 29.3962 91.7807 28.3004 91.7546 27.2046C91.7284 26.1087 91.6369 24.9998 91.4801 23.8779C91.4016 23.4344 91.2579 23.1082 91.0487 22.8995C90.8396 22.6908 90.4867 22.6125 89.99 22.6647C89.6763 22.7169 89.3626 22.7169 89.0489 22.6647C88.7352 22.6125 88.4346 22.5342 88.147 22.4299C87.8333 22.2994 87.585 22.2864 87.402 22.3907C87.219 22.4951 87.0621 22.6908 86.9314 22.9778C86.5654 23.8127 86.1864 24.6346 85.7943 25.4434C85.4021 26.2522 85.01 27.0741 84.6179 27.909C83.8598 29.5528 83.1148 31.1965 82.3828 32.8403C81.677 34.484 80.9842 36.1538 80.3045 37.8498C79.9386 38.763 79.2458 39.1021 78.2263 38.8673C77.8603 38.7891 77.5205 38.6325 77.2068 38.3977C76.8669 38.1629 76.5924 37.8889 76.3833 37.5758C76.148 37.2366 76.0042 36.8714 75.952 36.48C75.8997 36.0625 75.9781 35.632 76.1872 35.1885C76.7885 33.7795 77.3636 32.3837 77.9126 31.0008C78.4616 29.5919 79.0759 28.2091 79.7556 26.8523C80.383 25.626 80.9711 24.3867 81.5201 23.1343C82.0691 21.8819 82.6311 20.6296 83.2063 19.3772C84.0951 17.5247 84.9708 15.6853 85.8335 13.8589C86.6962 12.0064 87.598 10.167 88.5391 8.34061C89.0358 7.42742 89.5194 6.51423 89.99 5.60104C90.4867 4.68784 90.9703 3.77465 91.4409 2.86146C92.3297 1.08726 93.7544 0.161019 95.715 0.0827446C96.63 0.0305613 97.5449 0.00447002 98.4599 0.00447002C99.401 -0.0216193 100.329 0.0697006 101.244 0.278429C102.054 0.487159 102.799 0.800253 103.479 1.21771C104.185 1.63517 104.786 2.157 105.283 2.78319C105.78 3.38328 106.159 4.06165 106.42 4.8183C106.681 5.54885 106.812 6.33159 106.812 7.16651C106.786 8.0797 106.616 8.95376 106.302 9.78868C105.989 10.6236 105.623 11.4455 105.204 12.2543C104.682 13.3501 104.041 14.3416 103.283 15.2287C102.525 16.1158 101.714 16.9638 100.852 17.7726C100.041 18.5031 99.1918 19.1554 98.303 19.7294C97.4142 20.2773 96.4862 20.7861 95.5189 21.2558C95.2837 21.3862 95.1399 21.5167 95.0876 21.6471C95.0353 21.7776 95.0745 21.9602 95.2052 22.195C95.6235 23.0561 95.898 23.9562 96.0287 24.8955C96.1856 25.8087 96.2901 26.7349 96.3424 27.6742C96.3947 28.8222 96.4078 29.9572 96.3816 31.0791C96.3555 32.201 96.4078 33.336 96.5385 34.484C96.5907 34.8754 96.6561 35.2537 96.7345 35.619C96.8391 35.9842 96.9959 36.3495 97.2051 36.7148C97.3881 37.0018 97.4926 37.3149 97.5188 37.6541C97.5449 37.9672 97.4403 38.2672 97.2051 38.5542C96.7607 39.1021 96.1333 39.2717 95.3229 39.063C94.4602 38.8021 93.8067 38.3716 93.3623 37.7715C92.9179 37.1714 92.5911 36.4669 92.382 35.6581C92.1467 34.8232 91.9898 33.9883 91.9114 33.1534C91.833 32.2923 91.8199 31.4052 91.8722 30.492ZM102.263 6.07068C102.263 5.31403 102.133 4.79221 101.871 4.5052C101.61 4.2182 101.152 4.06165 100.499 4.03556C100.055 4.00947 99.597 4.00947 99.1265 4.03556C98.6821 4.03556 98.2377 4.03556 97.7933 4.03556C96.7999 3.98338 96.0941 4.42693 95.6758 5.36621C94.7086 7.37524 93.6629 9.35817 92.5388 11.315C91.4409 13.2458 90.4867 15.2678 89.6763 17.3812C89.624 17.5117 89.5325 17.6552 89.4018 17.8117C89.2972 17.9422 89.3234 18.0857 89.4802 18.2422C89.7678 18.477 90.1207 18.5292 90.539 18.3988C90.8265 18.2683 91.1141 18.1509 91.4016 18.0465C91.6892 17.9422 91.9768 17.8248 92.2643 17.6943C94.2772 16.7811 96.0418 15.6201 97.558 14.2111C99.0742 12.8022 100.329 11.1063 101.322 9.12335C101.584 8.60153 101.793 8.0797 101.95 7.55788C102.107 7.03605 102.211 6.54032 102.263 6.07068Z" fill="white"/>
<path d="M102.462 35.1885C103.298 34.6145 103.991 34.0144 104.54 33.3882C105.115 32.7359 105.677 32.0706 106.226 31.3922C107.429 29.9311 108.566 28.4439 109.638 26.9306C110.709 25.3912 111.742 23.8257 112.735 22.2342C113.049 21.7906 113.35 21.334 113.637 20.8644C113.951 20.3948 114.265 19.9382 114.578 19.4946C114.944 18.9728 115.389 18.6858 115.912 18.6336C116.434 18.5814 116.983 18.7641 117.558 19.1815C118.656 19.9382 118.866 20.8513 118.186 21.9211C117.271 23.4866 116.395 25.0651 115.559 26.6566C114.748 28.2482 114.003 29.8789 113.324 31.5487C113.114 31.9923 112.958 32.4489 112.853 32.9185C112.748 33.3882 112.722 33.8709 112.775 34.3666C112.801 34.471 112.814 34.5753 112.814 34.6797C112.814 34.7841 112.879 34.8623 113.01 34.9145C113.114 34.9406 113.193 34.9145 113.245 34.8362C113.324 34.758 113.389 34.6927 113.441 34.6406C114.931 33.1534 116.212 31.5879 117.284 29.9441C117.362 29.8137 117.441 29.6832 117.519 29.5528C117.624 29.4223 117.728 29.2919 117.833 29.1614C118.12 28.8222 118.447 28.5743 118.813 28.4178C119.179 28.2352 119.545 28.1699 119.911 28.2221C120.277 28.2482 120.617 28.3787 120.931 28.6135C121.271 28.8222 121.558 29.1353 121.793 29.5528C121.924 29.8398 121.989 30.1268 121.989 30.4138C122.016 30.6747 121.937 30.9356 121.754 31.1965C120.97 32.2402 120.199 33.2838 119.441 34.3275C118.683 35.345 117.846 36.3104 116.931 37.2236C116.251 37.928 115.532 38.4368 114.774 38.7499C114.016 39.0369 113.154 39.0369 112.186 38.7499C111.428 38.5151 110.827 38.1237 110.383 37.5758C109.938 37.0279 109.572 36.4148 109.285 35.7364C109.102 35.3189 108.971 35.1102 108.893 35.1102C108.84 35.0841 108.67 35.2276 108.383 35.5407C107.938 36.0625 107.455 36.5583 106.932 37.0279C106.435 37.4715 105.925 37.915 105.403 38.3586C104.932 38.7499 104.396 38.9847 103.795 39.063C103.194 39.1413 102.592 39.1021 101.991 38.9456C101.416 38.7891 100.88 38.5151 100.383 38.1237C99.8606 37.7324 99.4423 37.2497 99.1286 36.6757C98.5012 35.4494 98.3052 34.2231 98.5404 32.9968C98.828 31.4313 99.2724 29.9441 99.8737 28.5352C100.475 27.1002 101.181 25.7043 101.991 24.3476C102.514 23.5127 103.037 22.6777 103.56 21.8428C104.082 21.0079 104.618 20.173 105.167 19.3381C105.873 18.2683 106.788 18.0987 107.912 18.8293C108.513 19.2206 108.879 19.6772 109.01 20.1991C109.141 20.7209 109.036 21.2558 108.696 21.8037C107.729 23.3691 106.749 24.9216 105.756 26.461C104.788 27.9742 103.991 29.5919 103.364 31.3139C103.154 31.914 102.958 32.5272 102.775 33.1534C102.619 33.7535 102.514 34.4318 102.462 35.1885Z" fill="white"/>
<path d="M113.079 50.2561C113.288 49.7082 113.485 49.1603 113.668 48.6124C113.824 48.0645 114.047 47.5296 114.334 47.0078C114.935 45.9641 115.667 45.064 116.53 44.3073C117.367 43.5507 118.229 42.7941 119.118 42.0374C119.641 41.5939 120.151 41.1634 120.647 40.7459C121.144 40.3545 121.641 39.9371 122.137 39.4935C122.242 39.4152 122.333 39.337 122.412 39.2587C122.516 39.1804 122.595 39.0369 122.647 38.8282C121.994 38.8804 121.405 38.776 120.883 38.5151C120.386 38.2281 119.915 37.8889 119.471 37.4975C118.687 36.8192 118.164 36.0756 117.902 35.2667C117.615 34.4579 117.55 33.5578 117.706 32.5663C117.863 31.6531 118.112 30.7791 118.451 29.9441C118.765 29.1092 119.131 28.2873 119.549 27.4785C120.229 26.0957 120.935 24.7389 121.667 23.4083C122.425 22.0776 123.235 20.7731 124.098 19.4946C124.333 19.1293 124.595 18.8554 124.882 18.6727C125.196 18.464 125.575 18.4118 126.019 18.5162C126.542 18.6206 126.974 18.8162 127.313 19.1032C127.679 19.3641 127.941 19.7555 128.098 20.2773C128.255 20.6687 128.176 21.0601 127.862 21.4514C127.104 22.5734 126.398 23.7344 125.745 24.9346C125.091 26.1087 124.438 27.2828 123.784 28.4569C123.34 29.2919 122.935 30.1398 122.569 31.0008C122.203 31.8357 121.915 32.7098 121.706 33.623C121.654 33.8578 121.602 34.1187 121.549 34.4057C121.497 34.6927 121.588 34.9015 121.824 35.0319C122.007 35.1363 122.19 35.0841 122.373 34.8754C122.556 34.6666 122.726 34.484 122.882 34.3275C123.719 33.4925 124.49 32.6185 125.196 31.7053C125.902 30.7921 126.581 29.8528 127.235 28.8874C128.255 27.4002 129.209 25.887 130.098 24.3476C130.986 22.7821 131.849 21.2036 132.686 19.612C132.947 19.1163 133.326 18.8162 133.823 18.7119C134.319 18.5814 134.829 18.6597 135.352 18.9467C135.953 19.2598 136.358 19.6772 136.568 20.1991C136.777 20.7209 136.737 21.2427 136.45 21.7645C135.979 22.6256 135.535 23.4866 135.117 24.3476C134.698 25.2086 134.28 26.0826 133.862 26.9697C133.574 27.5437 133.326 28.1308 133.117 28.7309C132.908 29.3049 132.699 29.918 132.489 30.5703C132.855 30.2833 133.221 29.9963 133.587 29.7093C133.953 29.4223 134.28 29.1092 134.568 28.77C134.881 28.4308 135.221 28.2352 135.587 28.183C135.979 28.1047 136.358 28.1308 136.724 28.2613C137.09 28.3917 137.404 28.5874 137.666 28.8483C137.953 29.1092 138.162 29.3962 138.293 29.7093C138.554 30.4138 138.384 31.0269 137.783 31.5487C137.182 32.0706 136.581 32.5924 135.979 33.1142C135.378 33.61 134.777 34.1187 134.176 34.6406C133.287 35.3972 132.411 36.1408 131.548 36.8713C130.686 37.5758 129.823 38.2933 128.96 39.0239C128.804 39.1543 128.673 39.2978 128.568 39.4544C128.49 39.6109 128.424 39.7675 128.372 39.924C127.849 41.2547 127.327 42.5592 126.804 43.8377C126.281 45.1423 125.758 46.4468 125.235 47.7514C124.843 48.6646 124.386 49.5386 123.863 50.3736C123.366 51.2085 122.817 52.0173 122.216 52.8C121.771 53.4001 121.236 53.8828 120.608 54.2481C119.981 54.6134 119.327 54.9395 118.648 55.2265H117.118C116.125 54.9395 115.288 54.496 114.609 53.8959C113.903 53.2958 113.393 52.5 113.079 51.5085V50.2561ZM121.51 45.6771C120.935 45.9902 120.373 46.3946 119.824 46.8904C119.301 47.3861 118.844 47.9079 118.451 48.4558C118.059 49.0038 117.759 49.5517 117.55 50.0996C117.314 50.6475 117.21 51.1302 117.236 51.5477C117.811 51.2085 118.308 50.8041 118.726 50.3344C119.118 49.8909 119.471 49.4082 119.785 48.8864C120.098 48.3645 120.386 47.8297 120.647 47.2817C120.909 46.7338 121.196 46.199 121.51 45.6771Z" fill="white"/>
<path d="M142.861 35.7755C142.338 36.2191 141.841 36.6496 141.37 37.067C140.926 37.4584 140.456 37.8237 139.959 38.1629C139.044 38.7891 138.116 39.063 137.175 38.9847C136.26 38.8804 135.423 38.4107 134.665 37.5758C133.881 36.7409 133.423 35.8407 133.293 34.8754C133.162 33.91 133.214 32.9185 133.45 31.901C133.972 29.6832 134.77 27.6481 135.842 25.7956C136.939 23.9171 138.351 22.2342 140.076 20.747C140.521 20.3295 141.018 19.9512 141.567 19.612C142.116 19.2728 142.704 18.9989 143.331 18.7901C144.272 18.477 145.161 18.451 145.998 18.7119C146.86 18.9728 147.592 19.4946 148.193 20.2773C148.376 20.4861 148.52 20.6165 148.625 20.6687C148.755 20.7209 148.912 20.5904 149.095 20.2773C149.252 19.9121 149.474 19.6251 149.762 19.4163C150.049 19.2076 150.389 19.1293 150.781 19.1815C151.801 19.312 152.533 19.7947 152.977 20.6296C153.134 20.9949 153.173 21.334 153.095 21.6471C153.043 21.9341 152.938 22.2211 152.781 22.5081C152.18 23.5518 151.605 24.5824 151.056 25.5999C150.533 26.6175 150.049 27.6612 149.605 28.7309C149.056 29.9572 148.546 31.2096 148.076 32.488C147.631 33.7665 147.265 35.0841 146.978 36.4408C146.847 36.8322 146.756 37.2236 146.703 37.615C146.677 38.0063 146.651 38.4107 146.625 38.8282C146.599 39.1413 146.651 39.3761 146.782 39.5327C146.939 39.6892 147.161 39.8066 147.448 39.8849C149.435 40.485 150.873 41.6852 151.762 43.4855C152.049 44.0856 152.272 44.6857 152.428 45.2858C152.585 45.912 152.598 46.5512 152.468 47.2035C152.337 48.2471 151.892 49.0168 151.134 49.5125C150.402 50.0344 149.527 50.1909 148.507 49.9822C147.854 49.8517 147.252 49.6039 146.703 49.2386C146.154 48.8994 145.658 48.4819 145.213 47.9862C144.769 47.4644 144.364 46.9034 143.998 46.3033C143.658 45.7293 143.41 45.1031 143.253 44.4248C143.174 44.1378 143.03 43.9551 142.821 43.8768C142.612 43.8247 142.377 43.8247 142.116 43.8768C141.854 43.9551 141.58 44.0464 141.292 44.1508C141.031 44.2552 140.808 44.3465 140.625 44.4248C139.946 44.6335 139.266 44.8553 138.586 45.0901C137.907 45.3249 137.227 45.5467 136.547 45.7554C135.397 46.0946 134.234 46.4077 133.057 46.6947C131.881 47.0078 130.692 47.2426 129.489 47.3992C128.313 47.6079 127.149 47.6992 125.999 47.6731C124.823 47.6731 123.646 47.5296 122.47 47.2426C121.712 47.0339 121.006 46.7469 120.353 46.3816C119.673 46.0424 119.059 45.5989 118.51 45.0509C118.327 44.8944 118.17 44.7248 118.039 44.5422C117.908 44.3856 117.817 44.1899 117.765 43.9551C117.634 43.5116 117.647 43.1072 117.804 42.7419C117.987 42.481 118.235 42.3114 118.549 42.2331C118.863 42.1548 119.176 42.1548 119.49 42.2331C119.778 42.3114 120.052 42.4288 120.313 42.5853C120.575 42.768 120.823 42.9636 121.058 43.1724C121.555 43.4855 122.039 43.7203 122.509 43.8768C122.98 44.0334 123.516 44.1508 124.117 44.2291C125.163 44.3334 126.261 44.2682 127.411 44.0334C128.535 43.8247 129.62 43.6029 130.665 43.3681C131.633 43.1593 132.587 42.8984 133.528 42.5853C134.443 42.2983 135.358 41.9983 136.273 41.6852C137.214 41.3982 138.155 41.1112 139.096 40.8242C140.037 40.5633 140.991 40.3284 141.959 40.1197C142.22 40.0675 142.403 39.9762 142.508 39.8457C142.638 39.7414 142.691 39.5457 142.664 39.2587C142.638 38.6847 142.651 38.1237 142.704 37.5758C142.756 37.0279 142.808 36.4278 142.861 35.7755ZM137.214 34.9145C137.423 34.8623 137.58 34.7971 137.685 34.7188C137.789 34.6145 137.894 34.5231 137.998 34.4449C138.599 33.923 139.175 33.3751 139.724 32.8011C140.273 32.201 140.821 31.6009 141.37 31.0008C142.05 30.3225 142.651 29.631 143.174 28.9266C143.697 28.196 144.141 27.4002 144.507 26.5392C144.664 25.9913 144.821 25.4564 144.978 24.9346C145.135 24.4128 145.239 23.8518 145.292 23.2517C145.292 23.1213 145.305 22.9647 145.331 22.7821C145.383 22.5734 145.318 22.4299 145.135 22.3516C144.952 22.2733 144.795 22.2994 144.664 22.4299C144.534 22.5342 144.39 22.6386 144.233 22.743C142.429 24.0736 140.965 25.626 139.841 27.4002C138.717 29.1744 137.894 31.1574 137.371 33.349C137.319 33.5839 137.279 33.8317 137.253 34.0926C137.253 34.3535 137.24 34.6275 137.214 34.9145ZM148.586 45.638C148.586 45.0379 148.481 44.5161 148.272 44.0725C148.089 43.6551 147.827 43.3811 147.488 43.2507C147.409 43.1985 147.318 43.1463 147.213 43.0941C147.135 43.068 147.03 43.0811 146.899 43.1332C146.769 43.2115 146.716 43.2898 146.743 43.3681C146.769 43.4463 146.782 43.5377 146.782 43.642C146.886 44.0856 147.017 44.4769 147.174 44.8161C147.331 45.1814 147.501 45.5206 147.684 45.8337C147.762 45.9641 147.827 46.0946 147.88 46.2251C147.958 46.3555 148.076 46.3946 148.233 46.3425C148.442 46.2903 148.546 46.1859 148.546 46.0294C148.546 45.8989 148.559 45.7685 148.586 45.638Z" fill="white"/>
<path d="M150.119 33.2316C150.119 32.6837 150.25 32.0445 150.511 31.3139C150.746 30.5573 151.008 29.7876 151.295 29.0049C151.896 27.3611 152.602 25.7826 153.413 24.2693C154.249 22.756 155.086 21.2297 155.922 19.6903C156.131 19.325 156.367 19.0119 156.628 18.751C156.889 18.4901 157.242 18.3857 157.687 18.4379C158.706 18.5162 159.451 19.0119 159.922 19.9251C160.209 20.4469 160.209 20.9818 159.922 21.5297C159.138 22.9647 158.34 24.3867 157.53 25.7956C156.746 27.2046 156.066 28.6787 155.491 30.2181C155.203 30.8965 154.929 31.5748 154.667 32.2532C154.406 32.9316 154.249 33.6491 154.197 34.4057C154.197 34.5362 154.184 34.6927 154.158 34.8754C154.132 35.0319 154.184 35.1493 154.315 35.2276C154.498 35.332 154.641 35.3189 154.746 35.1885C154.877 35.058 155.007 34.9406 155.138 34.8362C155.818 34.2622 156.419 33.6491 156.942 32.9968C157.465 32.3184 157.987 31.6401 158.51 30.9617C158.772 30.5964 159.02 30.2442 159.255 29.905C159.517 29.5397 159.791 29.1875 160.079 28.8483C160.445 28.3787 160.902 28.1308 161.451 28.1047C162 28.0786 162.562 28.2873 163.137 28.7309C163.634 29.1223 163.908 29.5658 163.961 30.0615C164.039 30.5573 163.895 31.04 163.529 31.5096C162.902 32.2923 162.301 33.0881 161.726 33.897C161.177 34.7058 160.562 35.4885 159.883 36.2452C159.543 36.6104 159.203 36.9627 158.863 37.3019C158.523 37.641 158.144 37.9541 157.726 38.2411C156.628 38.9456 155.517 39.2196 154.393 39.063C153.269 38.9065 152.275 38.3325 151.413 37.341C150.968 36.8453 150.642 36.2713 150.433 35.619C150.197 34.9667 150.093 34.1709 150.119 33.2316ZM161.49 11.9021C162.118 11.9282 162.693 12.1891 163.216 12.6848C163.739 13.1544 164 13.6763 164 14.2503C164 14.5373 163.922 14.8373 163.765 15.1504C163.608 15.4374 163.412 15.7114 163.177 15.9723C162.941 16.2071 162.693 16.4158 162.431 16.5985C162.17 16.755 161.922 16.8333 161.686 16.8333C161.085 16.8072 160.523 16.5593 160 16.0897C159.504 15.594 159.255 15.0591 159.255 14.4851C159.255 14.1981 159.321 13.898 159.451 13.5849C159.608 13.2719 159.791 12.9979 160 12.7631C160.209 12.5022 160.445 12.2934 160.706 12.1369C160.994 11.9803 161.255 11.9021 161.49 11.9021Z" fill="white"/>
<defs>
<clipPath id="clip0_1_602">
<rect width="55.2264" height="55.2264" fill="white"/>
</clipPath>
</defs>
</svg>
