<svg width="25" height="25" viewBox="0 0 25 25" fill="none" xmlns="http://www.w3.org/2000/svg">
<path d="M23.3188 6.57495L18.6875 3.92183H18.6313L18.5938 3.90308H15.5C15.4006 3.90308 15.3052 3.94259 15.2349 4.01291C15.1645 4.08324 15.125 4.17862 15.125 4.27808C15.125 4.97427 14.8485 5.64195 14.3562 6.13423C13.8639 6.62651 13.1962 6.90308 12.5 6.90308C11.8038 6.90308 11.1362 6.62651 10.6439 6.13423C10.1516 5.64195 9.87504 4.97427 9.87504 4.27808C9.87504 4.17862 9.83553 4.08324 9.7652 4.01291C9.69488 3.94259 9.59949 3.90308 9.50004 3.90308H6.40629L6.36879 3.92183H6.31254L1.68129 6.57495C1.43262 6.71894 1.24787 6.95194 1.16434 7.22688C1.08081 7.50182 1.10474 7.79822 1.23129 8.0562L2.95629 11.5062C3.04992 11.692 3.19325 11.8482 3.37034 11.9575C3.54743 12.0667 3.75134 12.1247 3.95941 12.125H6.12504V20C6.12504 20.2983 6.24357 20.5845 6.45454 20.7954C6.66552 21.0064 6.95167 21.125 7.25004 21.125H17.75C18.0484 21.125 18.3346 21.0064 18.5455 20.7954C18.7565 20.5845 18.875 20.2983 18.875 20V12.125H21.0407C21.2487 12.1247 21.4526 12.0667 21.6297 11.9575C21.8068 11.8482 21.9502 11.692 22.0438 11.5062L23.7688 8.0562C23.8953 7.79822 23.9193 7.50182 23.8357 7.22688C23.7522 6.95194 23.5675 6.71894 23.3188 6.57495ZM3.95941 11.375C3.8904 11.3771 3.82231 11.3587 3.76386 11.3219C3.7054 11.2852 3.65925 11.2318 3.63129 11.1687L1.90629 7.7187C1.86239 7.63252 1.85349 7.53271 1.88144 7.44012C1.90939 7.34753 1.97204 7.26932 2.05629 7.22183L6.12504 4.89683V11.375H3.95941ZM18.125 20C18.125 20.0994 18.0855 20.1948 18.0152 20.2651C17.9449 20.3354 17.8495 20.375 17.75 20.375H7.25004C7.15058 20.375 7.0552 20.3354 6.98487 20.2651C6.91455 20.1948 6.87504 20.0994 6.87504 20V4.62495H9.14379C9.23153 5.45392 9.62296 6.22108 10.2426 6.77864C10.8623 7.33619 11.6664 7.64469 12.5 7.64469C13.3336 7.64469 14.1377 7.33619 14.7574 6.77864C15.3771 6.22108 15.7685 5.45392 15.8563 4.62495H18.125V20ZM23.0938 7.7187L21.3688 11.1687C21.3408 11.2318 21.2947 11.2852 21.2362 11.3219C21.1778 11.3587 21.1097 11.3771 21.0407 11.375H18.875V4.89683L22.9438 7.22183C23.028 7.26932 23.0907 7.34753 23.1186 7.44012C23.1466 7.53271 23.1377 7.63252 23.0938 7.7187Z" fill="#7C3AED"/>
</svg>
