<svg width="25" height="25" viewBox="0 0 25 25" fill="none" xmlns="http://www.w3.org/2000/svg">
<path d="M8.5 6.25C8.09 6.25 7.75 5.91 7.75 5.5V2.5C7.75 2.09 8.09 1.75 8.5 1.75C8.91 1.75 9.25 2.09 9.25 2.5V5.5C9.25 5.91 8.91 6.25 8.5 6.25Z" fill="#3BB19B"/>
<path d="M16.5 6.25C16.09 6.25 15.75 5.91 15.75 5.5V2.5C15.75 2.09 16.09 1.75 16.5 1.75C16.91 1.75 17.25 2.09 17.25 2.5V5.5C17.25 5.91 16.91 6.25 16.5 6.25Z" fill="#3BB19B"/>
<path d="M21 10.34H4C3.59 10.34 3.25 9.99997 3.25 9.58997C3.25 9.17997 3.59 8.83997 4 8.83997H21C21.41 8.83997 21.75 9.17997 21.75 9.58997C21.75 9.99997 21.41 10.34 21 10.34Z" fill="#3BB19B"/>
<path d="M16.5 23.25H8.5C4.85 23.25 2.75 21.15 2.75 17.5V9C2.75 5.35 4.85 3.25 8.5 3.25H16.5C20.15 3.25 22.25 5.35 22.25 9V17.5C22.25 21.15 20.15 23.25 16.5 23.25ZM8.5 4.75C5.64 4.75 4.25 6.14 4.25 9V17.5C4.25 20.36 5.64 21.75 8.5 21.75H16.5C19.36 21.75 20.75 20.36 20.75 17.5V9C20.75 6.14 19.36 4.75 16.5 4.75H8.5Z" fill="#3BB19B"/>
<path d="M9 15C8.87 15 8.74 14.97 8.62 14.92C8.5 14.87 8.39001 14.8 8.29001 14.71C8.20001 14.61 8.12999 14.5 8.07999 14.38C8.02999 14.26 8 14.13 8 14C8 13.74 8.11001 13.48 8.29001 13.29C8.39001 13.2 8.5 13.13 8.62 13.08C8.8 13 9.00001 12.98 9.20001 13.02C9.26001 13.03 9.32 13.05 9.38 13.08C9.44 13.1 9.5 13.13 9.56 13.17C9.61 13.21 9.65999 13.25 9.70999 13.29C9.74999 13.34 9.79999 13.39 9.82999 13.44C9.86999 13.5 9.90001 13.56 9.92001 13.62C9.95001 13.68 9.97001 13.74 9.98001 13.8C9.99001 13.87 10 13.93 10 14C10 14.26 9.88999 14.52 9.70999 14.71C9.51999 14.89 9.26 15 9 15Z" fill="#3BB19B"/>
<path d="M12.5 15C12.24 15 11.98 14.89 11.79 14.71C11.75 14.66 11.71 14.61 11.67 14.56C11.63 14.5 11.6 14.44 11.58 14.38C11.55 14.32 11.53 14.26 11.52 14.2C11.51 14.13 11.5 14.07 11.5 14C11.5 13.87 11.53 13.74 11.58 13.62C11.63 13.5 11.7 13.39 11.79 13.29C12.07 13.01 12.52 12.92 12.88 13.08C13.01 13.13 13.11 13.2 13.21 13.29C13.39 13.48 13.5 13.74 13.5 14C13.5 14.07 13.49 14.13 13.48 14.2C13.47 14.26 13.45 14.32 13.42 14.38C13.4 14.44 13.37 14.5 13.33 14.56C13.29 14.61 13.25 14.66 13.21 14.71C13.11 14.8 13.01 14.87 12.88 14.92C12.76 14.97 12.63 15 12.5 15Z" fill="#3BB19B"/>
<path d="M9 18.5C8.87 18.5 8.74 18.47 8.62 18.42C8.5 18.37 8.39001 18.3 8.29001 18.21C8.20001 18.11 8.12999 18.01 8.07999 17.88C8.02999 17.76 8 17.63 8 17.5C8 17.24 8.11001 16.98 8.29001 16.79C8.39001 16.7 8.5 16.63 8.62 16.58C8.99 16.42 9.42999 16.51 9.70999 16.79C9.74999 16.84 9.79999 16.89 9.82999 16.94C9.86999 17 9.90001 17.06 9.92001 17.12C9.95001 17.18 9.97001 17.24 9.98001 17.31C9.99001 17.37 10 17.44 10 17.5C10 17.76 9.88999 18.02 9.70999 18.21C9.51999 18.39 9.26 18.5 9 18.5Z" fill="#3BB19B"/>
</svg>
