<svg width="25" height="25" viewBox="0 0 25 25" fill="none" xmlns="http://www.w3.org/2000/svg">
<path d="M22.16 10.94L21.18 15.12C20.34 18.73 18.68 20.19 15.56 19.89C15.06 19.85 14.52 19.76 13.94 19.62L12.26 19.22C8.09 18.23 6.8 16.17 7.78 11.99L8.76 7.80001C8.96 6.95001 9.2 6.21001 9.5 5.60001C10.67 3.18001 12.66 2.53001 16 3.32001L17.67 3.71001C21.86 4.69001 23.14 6.76001 22.16 10.94Z" stroke="#EE6D00" stroke-width="1.5" stroke-linecap="round" stroke-linejoin="round"/>
<path d="M15.56 19.89C14.94 20.31 14.16 20.66 13.21 20.97L11.63 21.49C7.65998 22.77 5.56997 21.7 4.27997 17.73L2.99997 13.78C1.71997 9.80998 2.77997 7.70998 6.74997 6.42998L8.32997 5.90998C8.73997 5.77998 9.12997 5.66998 9.49997 5.59998C9.19997 6.20998 8.95997 6.94998 8.75997 7.79998L7.77997 11.99C6.79997 16.17 8.08998 18.23 12.26 19.22L13.94 19.62C14.52 19.76 15.06 19.85 15.56 19.89Z" stroke="#EE6D00" stroke-width="1.5" stroke-linecap="round" stroke-linejoin="round"/>
</svg>
