<svg width="25" height="25" viewBox="0 0 25 25" fill="none" xmlns="http://www.w3.org/2000/svg">
<path d="M18.6149 6.41002V5.47002C18.6149 5.15176 18.4885 4.84654 18.2635 4.62149C18.0384 4.39645 17.7332 4.27002 17.4149 4.27002H4.76494C4.44668 4.27002 4.14146 4.39645 3.91641 4.62149C3.69137 4.84654 3.56494 5.15176 3.56494 5.47002V14.61C3.56622 16.038 3.83766 17.4529 4.36494 18.78C4.63361 19.3805 5.07562 19.887 5.63423 20.2345C6.19283 20.5819 6.84254 20.7545 7.49994 20.73H14.6899C15.3479 20.7539 15.998 20.5811 16.5573 20.2338C17.1166 19.8865 17.5596 19.3803 17.8299 18.78C18.2288 17.7786 18.4781 16.724 18.5699 15.65L19.6099 15.13C20.1606 14.8536 20.6234 14.4294 20.9466 13.9048C21.2698 13.3803 21.4406 12.7761 21.4399 12.16V9.69002C21.438 8.89611 21.1522 8.12908 20.6341 7.52753C20.116 6.92599 19.3998 6.5296 18.6149 6.41002ZM16.8849 18.42C16.6894 18.8318 16.3758 19.1762 15.9841 19.4095C15.5924 19.6427 15.1402 19.7543 14.6849 19.73H7.49994C7.04497 19.7527 6.59344 19.6404 6.20204 19.4074C5.81063 19.1743 5.4968 18.8308 5.29994 18.42C4.81602 17.2081 4.56824 15.9149 4.56994 14.61V5.47002C4.56994 5.41698 4.59101 5.36611 4.62852 5.3286C4.66603 5.29109 4.7169 5.27002 4.76994 5.27002H17.4199C17.473 5.27002 17.5239 5.29109 17.5614 5.3286C17.5989 5.36611 17.6199 5.41698 17.6199 5.47002V14.61C17.62 15.9153 17.3706 17.2085 16.8849 18.42ZM20.4349 12.16C20.4381 12.5906 20.3196 13.0132 20.0932 13.3794C19.8667 13.7456 19.5415 14.0405 19.1549 14.23L18.6149 14.5V7.43002C19.1304 7.54303 19.5918 7.82867 19.9228 8.23966C20.2537 8.65064 20.4344 9.16233 20.4349 9.69002V12.16Z" fill="#F53689"/>
</svg>
