<svg width="14" height="14" viewBox="0 0 14 14" fill="none" xmlns="http://www.w3.org/2000/svg">
<path d="M12.2199 4.80003L9.19994 1.78003C8.56661 1.1467 7.69328 0.806699 6.79994 0.853366L3.46661 1.01337C2.13328 1.07337 1.07328 2.13337 1.00661 3.46003L0.846609 6.79337C0.806609 7.6867 1.13994 8.56003 1.77328 9.19337L4.79328 12.2134C6.03328 13.4534 8.04661 13.4534 9.29327 12.2134L12.2199 9.2867C13.4666 8.05337 13.4666 6.04003 12.2199 4.80003ZM5.33328 7.25337C4.27328 7.25337 3.41328 6.39337 3.41328 5.33337C3.41328 4.27337 4.27328 3.41337 5.33328 3.41337C6.39328 3.41337 7.25328 4.27337 7.25328 5.33337C7.25328 6.39337 6.39328 7.25337 5.33328 7.25337Z" fill="#A0A3BD"/>
</svg>
