<svg width="21" height="17" viewBox="0 0 21 17" fill="none" xmlns="http://www.w3.org/2000/svg">
<g clip-path="url(#clip0_1_597)">
<path d="M6.83904 16.8708C8.3747 16.8809 9.89712 16.5906 11.3179 16.0167C12.7386 15.4428 14.0294 14.5968 15.1153 13.5278C16.2013 12.4587 17.0606 11.188 17.6436 9.78925C18.2265 8.39054 18.5214 6.89178 18.5111 5.37995C18.5111 5.20551 18.5111 5.03105 18.4985 4.858C19.3019 4.28613 19.9953 3.57776 20.546 2.76612C19.7974 3.09242 19.0035 3.30661 18.1905 3.40158C19.047 2.89655 19.6882 2.10252 19.9947 1.16709C19.1892 1.63762 18.3079 1.96912 17.3889 2.14727C16.7706 1.49864 15.9522 1.06889 15.0606 0.924621C14.169 0.780354 13.254 0.92962 12.4573 1.34929C11.6606 1.76897 11.0268 2.43563 10.6541 3.24593C10.2813 4.05624 10.1904 4.96495 10.3955 5.83126C8.76413 5.75084 7.16812 5.3336 5.71112 4.60663C4.25411 3.87966 2.96867 2.85922 1.9382 1.6115C1.41271 2.50015 1.25106 3.55258 1.48621 4.55445C1.72136 5.55632 2.33561 6.43227 3.20384 7.00388C2.55192 6.98479 1.91427 6.81148 1.34476 6.49858C1.34476 6.51519 1.34476 6.53317 1.34476 6.54978C1.34515 7.48238 1.67314 8.38615 2.27316 9.10782C2.87318 9.82949 3.7083 10.3246 4.63684 10.5093C4.03254 10.6717 3.39841 10.6954 2.78334 10.5785C3.04554 11.3813 3.55598 12.0833 4.2433 12.5864C4.93063 13.0896 5.7605 13.3687 6.61686 13.3848C5.16323 14.5077 3.36826 15.1167 1.52054 15.1139C1.19159 15.1144 0.862883 15.096 0.536133 15.0586C2.41267 16.2448 4.59629 16.8744 6.82638 16.8722" fill="white"/>
</g>
<defs>
<clipPath id="clip0_1_597">
<rect width="20" height="16" fill="white" transform="translate(0.548828 0.871094)"/>
</clipPath>
</defs>
</svg>
