<svg width="25" height="25" viewBox="0 0 25 25" fill="none" xmlns="http://www.w3.org/2000/svg">
<path d="M17.47 12.75V17.25C17.47 21 15.97 22.5 12.22 22.5H7.71997C3.96997 22.5 2.46997 21 2.46997 17.25V12.75C2.46997 9 3.96997 7.5 7.71997 7.5H12.22C15.97 7.5 17.47 9 17.47 12.75Z" stroke="#EAAC30" stroke-width="1.5" stroke-linecap="round" stroke-linejoin="round"/>
<path d="M22.47 8C22.47 10.87 20.28 13.22 17.47 13.47V12.75C17.47 9 15.97 7.5 12.22 7.5H11.5C11.75 4.69 14.1 2.5 16.97 2.5C19.76 2.5 22.06 4.57 22.41 7.27C22.45 7.5 22.47 7.75 22.47 8Z" stroke="#EAAC30" stroke-width="1.5" stroke-linecap="round" stroke-linejoin="round"/>
</svg>
